<?xml version="1.0" standalone="no"?>
<!DOCTYPE svg PUBLIC "-//W3C//DTD SVG 1.1//EN" "http://www.w3.org/Graphics/SVG/1.1/DTD/svg11.dtd" >
<svg xmlns="http://www.w3.org/2000/svg">
<metadata></metadata>
<defs>
<font id="UrbanoBlackRegular" horiz-adv-x="1255" >
<font-face units-per-em="2048" ascent="1638" descent="-410" />
<missing-glyph horiz-adv-x="512" />
<glyph unicode="&#xfb01;" horiz-adv-x="1441" d="M18 711v225h191v145q0 86 20.5 136.5t69.5 85.5t109 49t161 14q125 0 213 -20v-222q-45 17 -92 17q-76 0 -105.5 -26.5t-29.5 -94.5v-84h217v-225h-217v-711h-346v711h-191zM971 0v936h346v-936h-346zM971 1114v252h346v-252h-346z" />
<glyph unicode="&#xfb02;" horiz-adv-x="1441" d="M18 711v225h191v145q0 86 20.5 136.5t69.5 85.5t109 49t161 14q125 0 213 -20v-222q-45 17 -92 17q-76 0 -105.5 -26.5t-29.5 -94.5v-84h217v-225h-217v-711h-346v711h-191zM971 0v1366h346v-1366h-346z" />
<glyph horiz-adv-x="0" />
<glyph horiz-adv-x="2048" />
<glyph unicode=" "  horiz-adv-x="512" />
<glyph unicode="&#x09;" horiz-adv-x="512" />
<glyph unicode="&#xa0;" horiz-adv-x="512" />
<glyph unicode="!" horiz-adv-x="655" d="M123 1366h409l-69 -967h-264zM164 0v283h332v-283h-332z" />
<glyph unicode="&#x22;" horiz-adv-x="1032" d="M68 1366h409l-71 -547h-267zM553 1366h410l-72 -547h-266z" />
<glyph unicode="#" horiz-adv-x="1429" d="M137 496l51 145h224l67 190h-223l51 148h223l86 250h162l-88 -250h207l86 250h162l-84 -250h231l-51 -148h-231l-66 -190h234l-52 -145h-235l-84 -242h-162l84 242h-205l-84 -242h-159l84 242h-228zM573 641h207l66 190h-207z" />
<glyph unicode="$" d="M31 432h377q5 -90 34 -131q25 -38 76.5 -61t114.5 -23q92 0 148.5 42.5t56.5 111.5q0 51 -24 80t-86.5 52.5t-197.5 55.5q-154 35 -234.5 68t-135.5 84q-47 41 -76 110.5t-29 141.5q0 114 64.5 212t173.5 152q109 53 246 64v192h186v-192q245 -31 348.5 -130t100.5 -298 h-377q-9 102 -48.5 142t-130.5 40q-86 0 -132 -35.5t-46 -101.5q0 -48 24.5 -77.5t87 -54t187.5 -53.5q152 -37 224 -65t131 -72q129 -97 129 -274q0 -183 -129.5 -300t-368.5 -151v-211h-186v211q-255 20 -385 141t-123 330z" />
<glyph unicode="%" horiz-adv-x="1513" d="M68 1004q0 178 85.5 281.5t233.5 103.5q142 0 224.5 -101t82.5 -276q0 -141 -73 -250q-82 -121 -244 -121q-144 0 -226.5 97t-82.5 266zM258 1020q0 -111 23 -170q14 -35 44 -58.5t62 -23.5q56 0 88.5 69t32.5 189q0 113 -31.5 172t-91.5 59t-93.5 -62.5t-33.5 -174.5z M356 0l688 1366h111l-684 -1366h-115zM819 342q0 178 86 281.5t234 103.5q142 0 224.5 -101t82.5 -276q0 -140 -74 -250q-81 -120 -244 -120q-145 0 -227 96.5t-82 265.5zM1010 358q0 -114 22 -170q13 -35 44 -58.5t63 -23.5q56 0 88.5 69.5t32.5 189.5q0 113 -31.5 172 t-91.5 59t-93.5 -63t-33.5 -175z" />
<glyph unicode="&#x26;" horiz-adv-x="1585" d="M68 365q0 162 131 266q40 33 81 50.5t115 35.5q-104 22 -162 69q-48 40 -75 99.5t-27 126.5q0 91 40.5 155t129.5 115q136 76 297 76q122 0 246 -15v-253q-8 2 -21 2l-49 4q-25 2 -63 2q-213 0 -213 -127q0 -71 60.5 -110t172.5 -38l113 2h82v219h352v-219h272v-252h-272 v-573l-584 -16h-39q-250 0 -393 65q-86 40 -140 127.5t-54 188.5zM449 406q0 -85 63.5 -122.5t206.5 -37.5h207v327h-203q-140 0 -207 -40.5t-67 -126.5z" />
<glyph unicode="'" horiz-adv-x="557" d="M68 1366h421l-71 -547h-279z" />
<glyph unicode="(" horiz-adv-x="643" d="M82 573q0 153 60.5 380t158.5 440h246q-89 -281 -129.5 -476t-40.5 -344q0 -317 170 -837h-246q-13 42 -14 43q-17 45 -50.5 135t-50.5 135q-47 127 -75.5 271.5t-28.5 252.5z" />
<glyph unicode=")" horiz-adv-x="643" d="M96 -264q170 520 170 837q0 284 -170 820h246q97 -213 158 -440.5t61 -379.5q0 -185 -65 -405q-7 -28 -140 -389q-1 -1 -14 -43h-246z" />
<glyph unicode="*" horiz-adv-x="774" d="M68 1067l38 145l199 -51v205h158v-205l190 68l54 -142l-195 -67l127 -166l-127 -88l-121 170l-112 -170l-132 88l115 166z" />
<glyph unicode="+" d="M61 600v203h469v452h199v-452h465v-203h-465v-475h-199v475h-469z" />
<glyph unicode="," horiz-adv-x="573" d="M18 -217l119 512h361l-222 -512h-258z" />
<glyph unicode="-" horiz-adv-x="557" d="M0 377v276h557v-276h-557z" />
<glyph unicode="." horiz-adv-x="573" d="M121 0v276h332v-276h-332z" />
<glyph unicode="/" horiz-adv-x="954" d="M-41 -242l684 1608h305l-678 -1608h-311z" />
<glyph unicode="0" d="M70 682q0 320 135 504q74 98 188.5 154.5t241.5 56.5q131 0 242 -54t178 -151q63 -93 98 -225t35 -283q0 -152 -42 -296t-114 -238q-66 -86 -172 -133.5t-235 -47.5q-264 0 -409.5 186.5t-145.5 526.5zM422 702q0 -132 18 -240t49 -161q55 -92 144 -92q97 0 150 119 t53 336q0 259 -49 376t-158 117q-101 0 -154 -115.5t-53 -339.5z" />
<glyph unicode="1" d="M276 844v305q17 9 81.5 39t113.5 55q72 36 108 60t78 63h295v-1366h-358v1016q-52 -38 -117 -73t-201 -99z" />
<glyph unicode="2" d="M109 0v293q375 288 517 442t142 273q0 69 -39 109t-106 40q-74 0 -106 -41t-38 -143h-370q10 118 32.5 177.5t73.5 109.5q67 66 177 101.5t243 35.5q232 0 366 -102t134 -279q0 -122 -60 -220t-221 -239q-129 -114 -375 -291h668v-266h-1038z" />
<glyph unicode="3" d="M78 393h360q10 -95 55 -139.5t128 -44.5q85 0 137.5 53t52.5 139q0 111 -82 164q-34 20 -74.5 27.5t-115.5 7.5h-70v229h70q124 0 182 25q36 17 59 56.5t23 84.5q0 71 -47.5 116.5t-120.5 45.5q-160 0 -166 -147h-354q6 110 33 171t92 111q140 107 387 107 q244 0 386 -99.5t142 -271.5q0 -74 -30.5 -139t-82.5 -105q-34 -25 -72 -40.5t-108 -32.5q77 -20 113.5 -33t71.5 -35q63 -38 97 -106t34 -154q0 -198 -172 -307q-170 -107 -416 -107q-297 0 -430 158q-39 48 -57.5 108t-24.5 158z" />
<glyph unicode="4" d="M29 279v296l567 791h412v-848h221v-239h-221v-279h-326v279h-653zM289 518h393v309q0 93 25 310z" />
<glyph unicode="5" d="M113 371h340q11 -88 47 -125t112 -37q91 0 141 59t50 168t-43 167.5t-125 58.5q-63 0 -102 -31.5t-46 -91.5h-348l23 827h917v-266h-608v-340q102 141 291 141q175 0 284 -120t109 -312q0 -224 -157 -362t-412 -138q-275 0 -389 156q-78 105 -84 246z" />
<glyph unicode="6" d="M86 639q0 382 146 570t442 188q127 0 227.5 -37.5t159.5 -106.5q38 -45 56 -96t24 -131h-348q-5 54 -25 80q-38 51 -117 51q-68 0 -119 -47.5t-73 -130.5q-22 -92 -27 -258q57 88 144 136t190 48q173 0 288 -124.5t115 -311.5q0 -223 -148 -361.5t-386 -138.5 q-141 0 -256.5 51.5t-181.5 145.5q-111 155 -111 473zM453 444q0 -106 50.5 -170.5t133.5 -64.5q84 0 132 59t48 162q0 236 -176 236q-89 0 -138.5 -58.5t-49.5 -163.5z" />
<glyph unicode="7" d="M119 1100v266h1018v-266l-467 -1100h-404l516 1100h-663z" />
<glyph unicode="8" d="M72 358q0 141 84.5 227t269.5 132q-148 23 -225.5 103.5t-77.5 209.5q0 173 132.5 270t371.5 97q236 0 374 -96.5t138 -262.5q0 -120 -69.5 -195.5t-223.5 -125.5q336 -64 336 -344q0 -204 -170 -305q-78 -47 -179 -73t-206 -26q-94 0 -189.5 20.5t-169.5 55.5 q-95 46 -145.5 127t-50.5 186zM410 410q0 -95 58.5 -148t164.5 -53q98 0 154.5 52.5t56.5 144.5q0 89 -60.5 143.5t-158.5 54.5t-156.5 -52.5t-58.5 -141.5zM444 1006q0 -80 53 -130.5t136 -50.5q78 0 131 52t53 129q0 72 -52 118.5t-132 46.5q-86 0 -137.5 -45t-51.5 -120z " />
<glyph unicode="9" d="M82 346h346q9 -78 49.5 -112.5t120.5 -34.5q92 0 146.5 52.5t80.5 166.5q22 107 27 268q-58 -84 -149.5 -129t-204.5 -45q-179 0 -294.5 121.5t-115.5 308.5q0 200 150.5 327.5t386.5 127.5q136 0 253 -53t179 -142q119 -172 119 -524q0 -361 -143 -535t-439 -174 q-485 0 -512 377zM426 950q0 -89 51.5 -138.5t145.5 -49.5q92 0 146 52.5t54 143.5q0 89 -54 144t-142 55q-93 0 -147 -55.5t-54 -151.5z" />
<glyph unicode=":" horiz-adv-x="573" d="M121 0v276h332v-276h-332zM121 659v277h332v-277h-332z" />
<glyph unicode=";" horiz-adv-x="573" d="M18 -217l119 512h361l-222 -512h-258zM115 659v277h331v-277h-331z" />
<glyph unicode="&#x3c;" horiz-adv-x="1024" d="M68 537v313l886 487v-372l-489 -273l487 -272l2 -373z" />
<glyph unicode="=" d="M61 397v201h1131v-201h-1131zM61 743v203h1131v-203h-1131z" />
<glyph unicode="&#x3e;" horiz-adv-x="1024" d="M68 47v375l489 272l-487 273l-2 370l886 -487v-313z" />
<glyph unicode="?" horiz-adv-x="972" d="M76 1122v244q194 27 336 27q219 0 352 -98.5t133 -260.5q0 -88 -47 -163.5t-150 -155.5q-38 -29 -55 -42t-40 -34t-30.5 -28t-19 -26.5t-13 -26.5t-4.5 -32t-3 -39.5v-50.5v-78h-291v107q0 85 6.5 119.5t25.5 62t76 82.5q174 168 174 272q0 150 -233 150q-77 0 -217 -29z M229 0v285h330v-285h-330z" />
<glyph unicode="@" horiz-adv-x="1611" d="M76 563q0 152 58 291t167 248q225 225 555 225q143 0 269.5 -46.5t217 -126.5t143 -192t52.5 -239q0 -150 -72 -280.5t-194 -207.5t-262 -77q-68 0 -105.5 28t-40.5 80q-72 -59 -122.5 -81.5t-110.5 -22.5q-100 0 -160.5 69.5t-60.5 184.5q0 142 62 272t164.5 209.5 t213.5 79.5q42 0 74.5 -14t72.5 -50l11 29h231l-192 -502q-23 -61 -23 -84q0 -14 14 -24t33 -10q52 0 112 40t111 109q84 118 84 252q0 208 -161 326q-78 60 -175.5 93.5t-193.5 33.5q-123 0 -236 -49.5t-195.5 -133t-131.5 -198t-49 -238.5q0 -170 83 -309.5t228 -219 t321 -79.5q216 0 379 114q42 30 73.5 63.5t76.5 96.5h137q-47 -110 -90 -168t-117 -112q-94 -71 -216.5 -109.5t-252.5 -38.5q-163 0 -308 59.5t-249 161.5t-164.5 244.5t-60.5 302.5zM651 367q0 -19 11 -32t26 -13q36 0 80 69q49 72 97 190.5t57 190.5q3 38 -31 41 q-28 3 -63 -32.5t-72 -102.5q-44 -79 -74.5 -170t-30.5 -141z" />
<glyph unicode="A" horiz-adv-x="1531" d="M-10 0l559 1366h430l563 -1366h-409l-105 274h-565l-98 -274h-375zM561 528h379l-190 576z" />
<glyph unicode="B" horiz-adv-x="1380" d="M133 0v1366h588q126 0 207.5 -15t152.5 -51q77 -40 122.5 -114.5t45.5 -163.5q0 -72 -29.5 -134.5t-84.5 -101.5q-31 -24 -66.5 -38.5t-105.5 -34.5q74 -10 116.5 -26.5t87.5 -51.5q129 -97 129 -250q0 -94 -52 -181t-134 -130q-145 -74 -387 -74h-590zM502 254h194 q114 0 168 39.5t54 124.5q0 164 -222 164h-194v-328zM502 819h172q63 0 95.5 7t57.5 26q56 40 56 121q0 155 -211 155h-170v-309z" />
<glyph unicode="C" horiz-adv-x="1431" d="M84 657q0 150 35 279t100 219q85 117 230.5 179.5t332.5 62.5q161 0 288.5 -50.5t197.5 -142.5q41 -52 62 -113.5t30 -154.5h-387q-21 194 -205 194q-140 0 -217.5 -117.5t-77.5 -330.5q0 -220 73 -333t214 -113q189 0 223 208h393q-7 -87 -27.5 -147.5t-60.5 -114.5 q-75 -102 -212.5 -157.5t-315.5 -55.5q-326 0 -501 178.5t-175 509.5z" />
<glyph unicode="D" horiz-adv-x="1527" d="M133 0v1366h510q232 0 376.5 -43t248.5 -143q176 -170 176 -498q0 -356 -207 -524q-106 -85 -244 -121.5t-354 -36.5h-506zM522 266h129q158 0 246 56q158 96 158 354q0 207 -99.5 315.5t-291.5 108.5h-142v-834z" />
<glyph unicode="E" horiz-adv-x="1177" d="M133 0v1366h963v-266h-594v-266h553v-267h-553v-301h608v-266h-977z" />
<glyph unicode="F" horiz-adv-x="1136" d="M133 0v1366h948v-266h-559v-293h529v-266h-529v-541h-389z" />
<glyph unicode="G" horiz-adv-x="1515" d="M82 662q0 350 194 542.5t547 192.5q272 0 416 -110.5t166 -334.5h-385q-13 56 -24.5 78.5t-37.5 44.5q-64 55 -165 55q-155 0 -238.5 -111.5t-83.5 -318.5q0 -137 35.5 -240t101.5 -155q87 -69 273 -69q74 0 143 14v262h-248v254h617v-729q-281 -68 -570 -68 q-195 0 -331.5 45t-231.5 140q-178 178 -178 508z" />
<glyph unicode="H" horiz-adv-x="1540" d="M133 0v1366h389v-539h496v539h389v-1366h-389v561h-496v-561h-389z" />
<glyph unicode="I" horiz-adv-x="653" d="M133 0v1366h389v-1366h-389z" />
<glyph unicode="J" horiz-adv-x="1187" d="M0 428h391q4 -107 32.5 -149.5t96.5 -42.5q86 0 123 59q14 24 18.5 59.5t4.5 124.5v887h389v-786q0 -171 -19 -262.5t-69 -159.5q-67 -91 -187 -140t-274 -49q-155 0 -269 46t-171 132q-31 47 -45.5 109.5t-20.5 171.5z" />
<glyph unicode="K" horiz-adv-x="1482" d="M133 0v1366h389v-1366h-389zM532 764l439 602h444l-465 -584l533 -782h-475z" />
<glyph unicode="L" horiz-adv-x="1124" d="M133 0v1366h389v-1100h604v-266h-993z" />
<glyph unicode="M" horiz-adv-x="1984" d="M133 0v1366h588l178 -545q34 -104 47 -168t38 -240q7 -50 11 -79q52 325 101 487l168 545h587v-1366h-346v1120l-362 -1120h-309l-367 1053v-1053h-334z" />
<glyph unicode="N" horiz-adv-x="1568" d="M133 0v1366h512l146 -297q46 -93 134.5 -316t166.5 -442v1055h346v-1366h-551l-146 299q-134 272 -274 715v-1014h-334z" />
<glyph unicode="O" horiz-adv-x="1536" d="M84 684q0 335 179 524t497 189q330 0 511 -189t181 -536q0 -324 -182.5 -513.5t-497.5 -189.5q-150 0 -279.5 46t-216.5 130q-192 186 -192 539zM473 686q0 -216 77 -333t218 -117q90 0 156.5 48.5t97.5 135.5q41 112 41 264q0 210 -78.5 328t-218.5 118 q-141 0 -217 -115t-76 -329z" />
<glyph unicode="P" horiz-adv-x="1290" d="M133 0v1366h508q187 0 275.5 -16.5t162.5 -63.5q82 -53 127 -144t45 -206q0 -109 -41 -198.5t-116 -143.5q-72 -52 -155 -70t-251 -18h-186v-506h-369zM502 764h166q112 0 163.5 41.5t51.5 130.5q0 86 -54.5 131t-160.5 45h-166v-348z" />
<glyph unicode="Q" horiz-adv-x="1628" d="M84 686q0 338 177.5 524.5t500.5 186.5q314 0 499 -180t185 -484q0 -190 -66 -316.5t-215 -223.5q98 31 182 43t193 12h115v-258l-217 10q-164 8 -221 8q-62 0 -238 -18q-175 -21 -246 -21q-141 0 -274.5 58.5t-218.5 156.5q-156 182 -156 502zM473 686q0 -217 76 -333.5 t217 -116.5q88 0 153.5 48t96.5 136q41 121 41 264q0 212 -77.5 329t-217.5 117q-138 0 -213.5 -115.5t-75.5 -328.5z" />
<glyph unicode="R" horiz-adv-x="1427" d="M133 0v1366h569q271 0 400 -53q83 -35 131.5 -115t48.5 -180q0 -161 -113 -254q-37 -31 -77.5 -48t-112.5 -30q146 -29 202.5 -86t71.5 -190q23 -201 40.5 -279t49.5 -131h-417q-37 97 -52 274q-11 120 -20 158.5t-33 61.5q-22 20 -57.5 28t-101.5 8h-160v-530h-369z M502 788h160q76 0 110.5 5t63.5 20q35 19 56 57t21 82q0 41 -19 77.5t-50 53.5q-53 29 -166 29h-176v-324z" />
<glyph unicode="S" horiz-adv-x="1349" d="M84 438h381q4 -61 13 -90t28 -53q26 -33 73 -52.5t99 -19.5q91 0 151 46.5t60 117.5q0 57 -46.5 92.5t-156.5 61.5q-235 56 -326.5 88t-140.5 78q-110 104 -110 264q0 197 153.5 311.5t417.5 114.5q158 0 280 -40.5t185 -113.5q41 -46 59.5 -106.5t22.5 -167.5h-377 q-3 53 -8.5 74t-20.5 42q-48 60 -147 60q-80 0 -128 -34.5t-48 -92.5q0 -75 51 -109t217 -71q278 -60 393 -148q57 -44 88 -113.5t31 -154.5q0 -209 -169 -331t-458 -122q-327 0 -473 172q-44 53 -66 121.5t-28 175.5z" />
<glyph unicode="T" horiz-adv-x="1245" d="M0 1100v266h1245v-266h-422v-1100h-389v1100h-434z" />
<glyph unicode="U" horiz-adv-x="1529" d="M133 608v758h389v-758q0 -135 8 -188.5t33 -89.5q31 -44 87.5 -69t125.5 -25q75 0 135 32.5t88 89.5q19 40 25 89t6 161v758h369v-758q0 -173 -32.5 -283.5t-106.5 -185.5q-167 -170 -512 -170q-287 0 -441 127q-92 75 -133 196.5t-41 315.5z" />
<glyph unicode="V" horiz-adv-x="1437" d="M-6 1366h424l155 -483q106 -334 170 -582q62 267 175 596l159 469h367l-498 -1366h-440z" />
<glyph unicode="W" horiz-adv-x="2205" d="M0 1366h399l172 -684q19 -76 38.5 -206.5t23.5 -215.5q5 41 10 66l12 80q18 123 62 276l192 684h443l198 -684q23 -79 46.5 -211.5t31.5 -222.5q26 236 70 434l153 684h355l-385 -1366h-416l-199 682q-63 216 -84 440q-12 -74 -16 -96q-68 -295 -82 -344l-199 -682h-426z " />
<glyph unicode="X" horiz-adv-x="1538" d="M0 0l526 715l-491 651h491l82 -123q123 -185 170 -315q51 125 185 336l65 102h434l-461 -651l537 -715h-498l-82 121q-81 119 -121.5 190t-99.5 191q-15 -28 -33.5 -66t-29.5 -59q-5 -10 -22.5 -38t-54.5 -87.5t-71 -114.5l-84 -137h-442z" />
<glyph unicode="Y" horiz-adv-x="1384" d="M-14 1366h448l76 -166q24 -52 72.5 -154.5t76.5 -165t58 -135.5q57 165 207 455l86 166h387l-512 -889v-477h-369v477z" />
<glyph unicode="Z" horiz-adv-x="1335" d="M84 0v295l684 805h-647v266h1102v-289l-688 -811h729v-266h-1180z" />
<glyph unicode="[" horiz-adv-x="724" d="M117 -246v1624h485v-256h-186v-1104h200v-264h-499z" />
<glyph unicode="\" horiz-adv-x="954" d="M6 1366h305l684 -1608h-313z" />
<glyph unicode="]" horiz-adv-x="724" d="M109 18h200v1104h-186v256h485v-1624h-499v264z" />
<glyph unicode="^" horiz-adv-x="1024" d="M14 694l289 680h416l289 -680h-328l-168 428l-168 -428h-330z" />
<glyph unicode="_" horiz-adv-x="1024" d="M0 -102h1024v-220h-1024v220z" />
<glyph unicode="`" horiz-adv-x="1024" d="M141 1384h334l189 -319h-252z" />
<glyph unicode="a" horiz-adv-x="1177" d="M84 274q0 218 260 279q98 22 377 33q-1 86 -7.5 122.5t-21.5 57.5q-30 37 -98 37q-66 0 -93.5 -32.5t-27.5 -113.5h-330q2 68 15 112t43 79q102 117 356 117q134 0 243.5 -33.5t170.5 -93.5q46 -46 64 -115.5t18 -202.5v-233q0 -191 16 -287h-332q-9 54 -10 74 q-1 4 -2 17.5t-2 19.5l-2 24q-51 -88 -118 -125t-173 -37q-161 0 -253.5 80t-92.5 221zM420 289q0 -55 37 -91t94 -36q83 0 126.5 63t43.5 183v32q-121 0 -184 -16q-117 -31 -117 -135z" />
<glyph unicode="b" horiz-adv-x="1271" d="M125 0v1366h346v-563q57 77 140.5 118.5t181.5 41.5q181 0 289 -134t108 -360q0 -220 -114.5 -359t-295.5 -139q-100 0 -174.5 38t-134.5 120v-129h-346zM459 457q0 -135 50.5 -211t141.5 -76q89 0 140 77.5t51 211.5q0 138 -53 221.5t-142 83.5q-91 0 -139.5 -79.5 t-48.5 -227.5z" />
<glyph unicode="c" horiz-adv-x="1161" d="M82 457q0 230 142 368t380 138q218 0 343.5 -97t125.5 -266h-338l-4 29q-11 73 -42.5 104t-96.5 31q-88 0 -125 -70.5t-37 -236.5q0 -148 41.5 -216.5t130.5 -68.5q84 0 119 57q16 27 24 123h351q-12 -114 -37 -171t-82 -103q-129 -105 -373 -105q-258 0 -385 121 q-66 61 -101.5 156.5t-35.5 206.5z" />
<glyph unicode="d" horiz-adv-x="1271" d="M84 451q0 238 110 375t302 137q201 0 305 -154v557h346v-1366h-346v135q-58 -84 -136 -123t-186 -39q-187 0 -291 126t-104 352zM432 465q0 -137 51 -215t140 -78q91 0 140.5 78t49.5 221q0 138 -49.5 215.5t-138.5 77.5q-91 0 -142 -79t-51 -220z" />
<glyph unicode="e" horiz-adv-x="1193" d="M84 461q0 240 136 371t386 131q163 0 283.5 -61.5t171.5 -170.5q25 -52 35.5 -125t13.5 -207h-680v-16v-8q0 -96 46 -149.5t128 -53.5q77 0 117.5 34.5t40.5 100.5h330q-7 -166 -128.5 -250t-351.5 -84q-259 0 -393.5 124.5t-134.5 363.5zM434 580h334q-3 95 -46 144.5 t-122 49.5q-154 0 -166 -194z" />
<glyph unicode="f" horiz-adv-x="796" d="M18 711v225h191v145q0 86 20.5 136.5t69.5 85.5t109 49t161 14q125 0 213 -20v-222q-45 17 -92 17q-76 0 -105.5 -26.5t-29.5 -94.5v-84h217v-225h-217v-711h-346v711h-191z" />
<glyph unicode="g" horiz-adv-x="1271" d="M84 481q0 204 92 326q54 70 144 113t184 43q98 0 169 -33t128 -105v111h346v-795q0 -145 -22.5 -222t-84.5 -142q-158 -164 -475 -164q-267 0 -368 113q-35 38 -51.5 86t-22.5 127h338q10 -66 47 -96.5t106 -30.5q103 0 145 58.5t42 203.5v98q-75 -78 -149 -110.5 t-175 -32.5q-190 0 -291.5 117t-101.5 335zM432 506q0 -134 45.5 -206.5t130.5 -72.5q49 0 93.5 27t64.5 70q37 87 37 184q0 123 -48.5 194.5t-133.5 71.5q-86 0 -137.5 -73t-51.5 -195z" />
<glyph unicode="h" horiz-adv-x="1269" d="M125 0v1366h346v-569q126 166 328 166q82 0 155 -33t119 -90q74 -91 74 -273v-567h-346v526q0 110 -37 162.5t-115 52.5q-56 0 -98 -28.5t-59 -77.5q-21 -56 -21 -189v-446h-346z" />
<glyph unicode="i" horiz-adv-x="593" d="M125 0v936h346v-936h-346zM125 1114v252h346v-252h-346z" />
<glyph unicode="j" horiz-adv-x="626" d="M-18 -137h26q63 0 87.5 7.5t39.5 29.5q14 17 17.5 35t3.5 65v936h346v-936q0 -139 -18 -199.5t-72 -101.5q-46 -34 -110.5 -49t-166.5 -15q-37 0 -153 7v221zM156 1114v252h346v-252h-346z" />
<glyph unicode="k" horiz-adv-x="1277" d="M125 0v1366h346v-1366h-346zM487 528l310 408h405l-346 -379l404 -557h-441z" />
<glyph unicode="l" horiz-adv-x="593" d="M125 0v1366h346v-1366h-346z" />
<glyph unicode="m" horiz-adv-x="1923" d="M125 0v936h346v-131q51 74 136 116t184 42q108 0 183.5 -44t137.5 -143q51 91 136 140t192 49q89 0 168.5 -31t120.5 -82q71 -85 71 -270v-582h-346v524q0 122 -33 166q-15 22 -48.5 36.5t-67.5 14.5q-43 0 -84 -21.5t-60 -53.5q-20 -39 -20 -142v-524h-346v524 q0 75 -6.5 110t-24.5 58q-40 49 -121 49q-172 0 -172 -217v-524h-346z" />
<glyph unicode="n" horiz-adv-x="1280" d="M125 0v936h346v-127q70 83 145 118.5t175 35.5q178 0 282 -107q47 -50 64.5 -113t17.5 -186v-557h-346v528q0 111 -29 156q-41 57 -129 57q-98 0 -149 -75q-19 -29 -25 -60.5t-6 -93.5v-512h-346z" />
<glyph unicode="o" horiz-adv-x="1253" d="M84 471q0 260 168 381q148 111 375 111q263 0 403.5 -131t140.5 -375q0 -236 -147 -359q-71 -59 -177 -92t-226 -33q-253 0 -395 131.5t-142 366.5zM430 477q0 -149 50 -227t147 -78q198 0 198 299q0 143 -51 218t-149 75q-95 0 -145 -73.5t-50 -213.5z" />
<glyph unicode="p" horiz-adv-x="1273" d="M125 -354v1290h346v-131q49 82 123 120t182 38q192 0 304 -133.5t112 -360.5q0 -237 -105.5 -366.5t-298.5 -129.5q-109 0 -181 35.5t-136 122.5v-485h-346zM461 475q0 -143 50 -223t140 -80q88 0 140.5 78.5t52.5 210.5q0 122 -45 207q-47 96 -150 96q-90 0 -139 -76 t-49 -213z" />
<glyph unicode="q" horiz-adv-x="1271" d="M84 467q0 229 106 362.5t287 133.5q198 0 326 -158v131h346v-1290h-346v485q-114 -160 -301 -160q-186 0 -302 137.5t-116 358.5zM432 457q0 -133 50.5 -210t138.5 -77q91 0 141.5 80t50.5 223q0 138 -49.5 214.5t-140.5 76.5q-88 0 -139.5 -83.5t-51.5 -223.5z" />
<glyph unicode="r" horiz-adv-x="808" d="M125 0v936h346v-184q44 100 118 147t195 51v-299q-105 0 -155.5 -11t-87.5 -42q-43 -37 -56.5 -83t-13.5 -153v-362h-346z" />
<glyph unicode="s" horiz-adv-x="1110" d="M84 289q0 16 2 28h332q4 -21 6 -26q10 -75 40.5 -106t92.5 -31q55 0 89 25.5t34 66.5q0 22 -12 44t-31 34q-29 20 -61 30.5t-193 53.5q-129 34 -191.5 95.5t-62.5 155.5q0 140 116.5 222t315.5 82q212 0 326 -79t114 -225v-18h-325q0 64 -14 92q-14 22 -43 35.5t-64 13.5 q-47 0 -76.5 -25t-29.5 -65q0 -37 40.5 -58t186.5 -61q120 -32 177 -54.5t95 -51.5q80 -60 80 -172q0 -155 -122.5 -238.5t-352.5 -83.5q-221 0 -336 70q-58 35 -95.5 104.5t-37.5 141.5z" />
<glyph unicode="t" horiz-adv-x="817" d="M18 711v225h193v141l346 142v-283h213v-225h-213v-355q0 -102 29 -132.5t125 -30.5q27 0 59 12v-215q-130 -19 -254 -19q-194 0 -256 82q-29 36 -39 103t-10 217v338h-193z" />
<glyph unicode="u" horiz-adv-x="1253" d="M125 451v485h346v-485q0 -99 7 -139t30 -72q35 -47 102 -47q52 0 96.5 29t61.5 73q11 30 13.5 59t2.5 121v461h346v-936h-346v147q-52 -92 -128 -134t-187 -42q-184 0 -270 103q-58 71 -70 190q-4 58 -4 187z" />
<glyph unicode="v" horiz-adv-x="1193" d="M18 936h394l221 -619l213 619h330l-390 -936h-374z" />
<glyph unicode="w" horiz-adv-x="1796" d="M18 936h347l147 -510q24 -80 33 -184q12 118 33 184l155 510h361l180 -516q29 -85 37 -182q12 95 26 145l152 553h289l-308 -936h-350l-192 543q-17 46 -21.5 73t-9.5 97q-8 -77 -41 -168l-192 -545h-293z" />
<glyph unicode="x" horiz-adv-x="1161" d="M18 0l353 498l-322 438h418q75 -126 131 -256q22 46 39 76q6 12 17 30.5t20 34.5l45 80l22 35h357l-320 -438l363 -498h-420q-93 155 -166 324q-15 -30 -27 -53.5t-18 -35.5t-16 -30q-11 -22 -20.5 -37.5t-30 -48t-44.5 -72.5q-3 -6 -28 -47h-353z" />
<glyph unicode="y" horiz-adv-x="1191" d="M18 936h394q61 -147 127.5 -346.5t85.5 -292.5q78 253 108 332q47 133 117 307h321l-546 -1294h-318l139 346z" />
<glyph unicode="z" horiz-adv-x="1013" d="M63 0v221l480 502h-451v213h828v-229l-459 -486h487v-221h-885z" />
<glyph unicode="{" horiz-adv-x="724" d="M45 430v260q60 14 87.5 53.5t27.5 114.5v219q0 156 71 221q44 41 102 54.5t193 13.5q93 0 154 -2v-299h-27q-59 0 -91 -6t-52 -24.5t-25.5 -47t-5.5 -80.5v-104q0 -101 -25 -153.5t-94 -96.5q67 -43 93 -97.5t26 -154.5v-115q0 -38 2.5 -61.5t11 -43t21 -29.5t36.5 -16.5 t53.5 -8.5t76.5 -2v-283q-121 -2 -168 -2q-129 0 -189.5 17t-103.5 65q-59 65 -59 217v209q0 86 -26 127t-89 55z" />
<glyph unicode="|" horiz-adv-x="1024" d="M322 -342v1708h378v-1708h-378z" />
<glyph unicode="}" horiz-adv-x="724" d="M45 25q47 0 76.5 2t53.5 8.5t36.5 16.5t21 29.5t11 43t2.5 61.5v115q0 100 26 154.5t93 97.5q-69 44 -94 96.5t-25 153.5v104q0 101 -31.5 129.5t-144.5 28.5h-25v299q61 2 154 2q140 0 201 -16t106 -64q59 -65 59 -209v-219q0 -75 27.5 -114.5t87.5 -53.5v-260 q-63 -14 -89 -55t-26 -127v-209q0 -161 -71 -229q-43 -42 -100.5 -56t-188.5 -14q-58 0 -160 2v283z" />
<glyph unicode="~" horiz-adv-x="1366" d="M188 1255q61 156 138 228.5t180 72.5q41 0 91 -15.5t210 -76.5q44 -14 70 -14q37 0 66 26t61 87l180 -152q-66 -162 -140 -230.5t-182 -68.5q-44 0 -84 11t-145 53q-103 41 -141 41q-34 0 -62.5 -26t-60.5 -87z" />
<glyph unicode="&#xa1;" horiz-adv-x="655" d="M123 -354l70 964h264l75 -964h-409zM160 727v283h332v-283h-332z" />
<glyph unicode="&#xa2;" d="M115 684q0 268 180 410q51 40 104.5 60.5t143.5 35.5v131h180v-131q124 -20 191.5 -52t117.5 -94q70 -92 70 -192v-23h-338q-5 70 -19 103q-12 32 -44 50.5t-74 18.5q-86 0 -123 -76.5t-37 -254.5q0 -281 162 -281q92 0 123 60q19 34 24 129h350q-9 -174 -107.5 -266.5 t-295.5 -112.5v-146h-180v146q-98 13 -152 31.5t-102 54.5q-83 61 -128.5 165.5t-45.5 233.5z" />
<glyph unicode="&#xa3;" d="M37 649v223h188v109q0 205 134 310.5t395 105.5q310 0 413 -168q24 -39 34 -88.5t16 -159.5h-345q-2 122 -30 162.5t-111 40.5q-75 0 -119 -39.5t-41 -106.5l2 -57v-109h271v-223h-271v-426h596v-223h-1091v223h147v426h-188z" />
<glyph unicode="&#xa4;" horiz-adv-x="1486" d="M68 221l213 213q-68 127 -68 258q0 133 74 269l-217 217l192 194l223 -223q74 38 132.5 54t127.5 16q67 0 124.5 -15.5t131.5 -52.5l222 219l190 -192l-213 -213q78 -136 78 -273q0 -67 -16 -125.5t-54 -132.5l213 -213l-190 -192l-211 211q-135 -78 -268 -78 q-136 0 -281 78l-213 -211zM541 694q0 -85 60 -146t144 -61q86 0 146.5 61.5t60.5 147.5q0 85 -59.5 146t-142.5 61q-88 0 -148.5 -60.5t-60.5 -148.5z" />
<glyph unicode="&#xa5;" d="M57 436v197h326l-72 158h-254v196h168l-168 379h400l61 -166q2 -6 14 -39t27 -75.5t27 -77.5q7 -22 57 -195q8 25 26 86t24 80t20 61t28 77.5t33 82.5l68 166h356l-168 -379h168v-196h-256l-72 -158h328v-197h-397v-436h-348v436h-396z" />
<glyph unicode="&#xa6;" horiz-adv-x="1024" d="M322 313h378v-655h-378v655zM322 629v737h378v-737h-378z" />
<glyph unicode="&#xa7;" horiz-adv-x="1230" d="M109 602q0 127 73 223q22 27 90 101q-82 76 -82 182q0 130 102.5 207.5t274.5 77.5q213 0 443 -125v-207q-132 72 -224 100.5t-192 28.5q-58 0 -92.5 -20t-34.5 -54q0 -28 46 -56t194 -89q285 -118 354 -209q59 -80 59 -199q0 -194 -166 -344q78 -78 78 -180 q0 -132 -102.5 -215.5t-265.5 -83.5q-111 0 -228.5 34.5t-269.5 112.5v236q284 -166 473 -166q52 0 85.5 21t33.5 53t-17 49q-27 27 -192 102q-40 18 -146 66q-164 75 -229 153t-65 201zM340 655q0 -81 109 -133l360 -176q56 67 72 97t16 69q0 44 -34.5 79t-117.5 75 l-321 153q-54 -62 -69 -91t-15 -73z" />
<glyph unicode="&#xa8;" horiz-adv-x="1024" d="M174 1092v260h258v-260h-258zM588 1092v260h260v-260h-260z" />
<glyph unicode="&#xa9;" horiz-adv-x="1562" d="M68 688q0 145 57.5 276.5t154.5 226t231 150.5t282 56q188 0 350 -97t257 -261.5t95 -354.5q0 -145 -56.5 -277.5t-152 -228.5t-227.5 -152.5t-277 -56.5q-195 0 -359.5 96t-259.5 261.5t-95 361.5zM195 688q0 -162 78 -298.5t213 -215t296 -78.5q158 0 293 79t214 214.5 t79 294.5q0 156 -78.5 291t-211.5 215t-287 80q-268 0 -445 -195q-72 -79 -111.5 -181t-39.5 -206zM391 670q0 195 105 300t299 105q316 0 340 -264h-236q-9 107 -111 107q-77 0 -119 -62t-42 -174q0 -233 157 -233q104 0 121 112h238q-10 -132 -102 -201t-255 -69 q-191 0 -293 98t-102 281z" />
<glyph unicode="&#xaa;" horiz-adv-x="856" d="M72 553v121h714v-121h-714zM100 963q0 138 174 178q65 14 240 20q-1 76 -15.5 98.5t-60.5 22.5q-41 0 -56 -19t-15 -71h-228v2v8q0 95 70 145t205 50q89 0 161.5 -22t112.5 -60q31 -29 43 -73.5t12 -127.5v-143q0 -121 13 -185h-230q-6 27 -8 52l-2 18q-60 -86 -184 -86 q-107 0 -169.5 52t-62.5 141zM332 973q0 -31 22 -51.5t56 -20.5q104 0 104 143v15q-98 0 -140 -20t-42 -66z" />
<glyph unicode="&#xab;" horiz-adv-x="1157" d="M68 469l237 375h252l-162 -375l162 -367h-252zM586 469l235 375h252l-160 -375l160 -367h-252z" />
<glyph unicode="&#xac;" horiz-adv-x="1024" d="M68 279v329h886v-608h-366v279h-520z" />
<glyph unicode="&#xad;" horiz-adv-x="557" d="M0 377v276h557v-276h-557z" />
<glyph unicode="&#xae;" horiz-adv-x="1562" d="M68 688q0 145 57 276t154 226t231.5 151t282.5 56q188 0 350 -97t257 -262t95 -356q0 -145 -56.5 -277t-152 -227.5t-227.5 -152t-277 -56.5q-195 0 -359.5 96t-259.5 261.5t-95 361.5zM195 686q0 -121 46 -230t124 -188t187 -125.5t230 -46.5q119 0 227.5 46.5t187 125 t125 187t46.5 227.5q0 157 -78.5 292.5t-211.5 215.5t-287 80q-268 0 -445 -195q-72 -79 -111.5 -181t-39.5 -208zM440 307v752h330q154 0 231 -29q48 -21 77.5 -65.5t29.5 -100.5q0 -43 -18.5 -82t-47.5 -59q-31 -21 -79 -39q36 -11 55 -20.5t34.5 -22t23.5 -39.5t14 -58.5 t14 -92.5q7 -57 16.5 -86.5t28.5 -57.5h-254q-24 56 -33 156q-8 91 -25 111t-89 20h-84v-287h-224zM664 745h84q70 0 96 13q41 20 41 69q0 41 -31 60.5t-98 19.5h-92v-162z" />
<glyph unicode="&#xaf;" horiz-adv-x="1024" d="M176 1124v197h672v-197h-672z" />
<glyph unicode="&#xb0;" horiz-adv-x="663" d="M68 1128q0 109 77.5 187t186.5 78q110 0 186 -77.5t76 -189.5q0 -106 -77.5 -183t-184.5 -77q-109 0 -186.5 76.5t-77.5 185.5zM217 1130q0 -47 34 -80.5t81 -33.5q46 0 79 33t33 79q0 47 -33 81t-79 34q-47 0 -81 -33.5t-34 -79.5z" />
<glyph unicode="&#xb1;" horiz-adv-x="1024" d="M8 16v172h1006v-172h-1006zM8 668v172h412v413h180v-413h414v-172h-414v-398h-180v398h-412z" />
<glyph unicode="&#xb2;" horiz-adv-x="819" d="M80 547v182q234 171 321.5 260.5t87.5 157.5q0 38 -21.5 60t-59.5 22q-43 0 -60.5 -23t-21.5 -86h-246q4 72 19.5 111.5t50.5 71.5q91 81 266 81q146 0 231.5 -62t85.5 -169q0 -97 -83.5 -190.5t-307.5 -245.5h399v-170h-661z" />
<glyph unicode="&#xb3;" horiz-adv-x="819" d="M61 793h238q7 -58 32 -83.5t75 -25.5q47 0 77.5 30t30.5 77q0 58 -37 83t-123 25h-51v150h51q83 0 111 14q20 9 32.5 31t12.5 47q0 38 -27.5 63t-68.5 25q-95 0 -95 -86h-235q3 70 21 108.5t61 69.5q86 63 242 63q157 0 247 -60.5t90 -164.5q0 -144 -161 -188 q89 -23 131.5 -69.5t42.5 -121.5q0 -114 -102 -183t-271 -69q-188 0 -270 97q-28 31 -40.5 69t-13.5 99z" />
<glyph unicode="&#xb4;" horiz-adv-x="1024" d="M360 1065l189 319h334l-271 -319h-252z" />
<glyph unicode="&#xb5;" horiz-adv-x="1024" d="M45 -352v1335h317v-496q0 -107 21 -153q20 -41 56 -64.5t79 -23.5q75 0 110.5 59.5t35.5 186.5v491h317v-983h-317v115q-26 -69 -62.5 -101t-89.5 -32q-50 0 -85.5 26t-64.5 84v-444h-317z" />
<glyph unicode="&#xb6;" horiz-adv-x="1331" d="M129 1010q0 103 44 181.5t126 121.5q57 31 120 42t179 11h541v-135h-101v-1462h-176v1462h-164v-1462h-176v890h-24q-164 0 -266.5 97t-102.5 254z" />
<glyph unicode="&#xb7;" horiz-adv-x="573" d="M121 346v277h332v-277h-332z" />
<glyph unicode="&#xb8;" horiz-adv-x="1024" d="M256 -444l190 333h172l-81 -333h-281z" />
<glyph unicode="&#xb9;" horiz-adv-x="819" d="M184 1040v195l43 20q13 6 41 19.5t41 19.5q79 40 117 72h195v-819h-240v592q-52 -36 -197 -99z" />
<glyph unicode="&#xba;" horiz-adv-x="856" d="M68 1085q0 146 95.5 229t264.5 83q173 0 266.5 -83.5t93.5 -238.5q0 -143 -97 -224t-267 -81q-168 0 -262 83t-94 232zM70 553v121h714v-121h-714zM307 1090q0 -183 121 -183t121 178q0 85 -31.5 130t-91.5 45q-119 0 -119 -170z" />
<glyph unicode="&#xbb;" horiz-adv-x="1157" d="M82 98l162 371l-162 377h256l233 -377l-233 -371h-256zM600 98l162 371l-162 377h254l236 -377l-236 -371h-254z" />
<glyph unicode="&#xbc;" horiz-adv-x="2060" d="M184 1040v195l43 20q13 6 41 19.5t41 19.5q79 40 117 72h195v-819h-240v592q-52 -36 -197 -99zM578 0l688 1366h219l-684 -1366h-223zM1272 164v184l354 471h268v-500h138v-155h-138v-164h-219v164h-403zM1454 319h221v177q0 52 13 151z" />
<glyph unicode="&#xbd;" horiz-adv-x="2060" d="M184 1040v195l43 20q13 6 41 19.5t41 19.5q79 40 117 72h195v-819h-240v592q-52 -36 -197 -99zM578 0l688 1366h219l-684 -1366h-223zM1321 0v182q236 175 323 263t87 157q0 37 -22 58.5t-60 21.5q-43 0 -60 -22.5t-22 -84.5h-246q7 76 21.5 113t48.5 68q92 82 266 82 q146 0 231.5 -62.5t85.5 -169.5q0 -97 -83 -189.5t-308 -246.5h399v-170h-661z" />
<glyph unicode="&#xbe;" horiz-adv-x="2060" d="M61 793h238q7 -58 32 -83.5t75 -25.5q47 0 77.5 30t30.5 77q0 58 -37 83t-123 25h-51v150h51q83 0 111 14q20 9 32.5 31t12.5 47q0 38 -27.5 63t-68.5 25q-95 0 -95 -86h-235q3 70 21 108.5t61 69.5q86 63 242 63q157 0 247 -60.5t90 -164.5q0 -144 -161 -188 q89 -23 131.5 -69.5t42.5 -121.5q0 -114 -102 -183t-271 -69q-188 0 -270 97q-28 31 -40.5 69t-13.5 99zM578 0l688 1366h219l-684 -1366h-223zM1272 164v184l354 471h268v-500h138v-155h-138v-164h-219v164h-403zM1454 319h221v177q0 52 13 151z" />
<glyph unicode="&#xbf;" horiz-adv-x="972" d="M76 -25q0 89 46.5 164.5t149.5 155.5q107 83 131 111q30 36 34 95q1 20 1 72v78h291v-106q0 -85 -6.5 -119.5t-25.5 -62t-76 -82.5q-175 -166 -175 -271q0 -149 234 -149q80 0 217 26v-241q-194 -27 -336 -27q-220 0 -352.5 97.5t-132.5 258.5zM414 725v285h329v-285 h-329z" />
<glyph unicode="&#xc0;" horiz-adv-x="1531" d="M-10 0l559 1366h430l563 -1366h-409l-105 274h-565l-98 -274h-375zM369 1808h333l189 -319h-252zM561 528h379l-190 576z" />
<glyph unicode="&#xc1;" horiz-adv-x="1531" d="M-10 0l559 1366h430l563 -1366h-409l-105 274h-565l-98 -274h-375zM561 528h379l-190 576zM655 1489l189 319h334l-271 -319h-252z" />
<glyph unicode="&#xc2;" horiz-adv-x="1531" d="M-10 0l559 1366h430l563 -1366h-409l-105 274h-565l-98 -274h-375zM379 1489l229 328h348l199 -328h-268l-113 178l-121 -178h-274zM561 528h379l-190 576z" />
<glyph unicode="&#xc3;" horiz-adv-x="1531" d="M-10 0l559 1366h430l563 -1366h-409l-105 274h-565l-98 -274h-375zM422 1516q1 61 10.5 96.5t32.5 70.5q34 52 88.5 80.5t120.5 28.5q40 0 60.5 -6t99.5 -43q60 -27 102 -27q49 0 55 72h174q-1 -124 -63 -202.5t-158 -78.5q-37 0 -68.5 9t-113.5 43q-68 26 -100 26 q-31 0 -46.5 -15.5t-19.5 -53.5h-174zM561 528h379l-190 576z" />
<glyph unicode="&#xc4;" horiz-adv-x="1531" d="M-10 0l559 1366h430l563 -1366h-409l-105 274h-565l-98 -274h-375zM436 1528v260h258v-260h-258zM561 528h379l-190 576zM850 1528v260h260v-260h-260z" />
<glyph unicode="&#xc5;" horiz-adv-x="1531" d="M-10 0l559 1366h430l563 -1366h-409l-105 274h-565l-98 -274h-375zM510 1657q0 83 73.5 136.5t186.5 53.5q118 0 192 -54t74 -140q0 -85 -73.5 -139t-188.5 -54q-120 0 -192 54t-72 143zM561 528h379l-190 576zM680 1655q0 -41 25.5 -67.5t66.5 -26.5q40 0 66 26t26 66 q0 44 -25.5 70t-68.5 26q-41 0 -65.5 -25.5t-24.5 -68.5z" />
<glyph unicode="&#xc6;" horiz-adv-x="2025" d="M0 0l772 1366h1147v-266h-627l37 -266h559v-267h-528l41 -301h557v-266h-877l-34 279h-521l-149 -279h-377zM657 532h359l-68 596z" />
<glyph unicode="&#xc7;" horiz-adv-x="1431" d="M84 657q0 150 35 279t100 219q85 117 230.5 179.5t332.5 62.5q161 0 288.5 -50.5t197.5 -142.5q41 -52 62 -113.5t30 -154.5h-387q-21 194 -205 194q-140 0 -217.5 -117.5t-77.5 -330.5q0 -220 73 -333t214 -113q189 0 223 208h393q-7 -87 -27.5 -147.5t-60.5 -114.5 q-75 -102 -212.5 -157.5t-315.5 -55.5q-326 0 -501 178.5t-175 509.5zM418 -451l231 342h199l-103 -342h-327z" />
<glyph unicode="&#xc8;" horiz-adv-x="1177" d="M133 0v1366h963v-266h-594v-266h553v-267h-553v-301h608v-266h-977zM229 1808h334l189 -319h-252z" />
<glyph unicode="&#xc9;" horiz-adv-x="1177" d="M133 0v1366h963v-266h-594v-266h553v-267h-553v-301h608v-266h-977zM496 1489l188 319h334l-270 -319h-252z" />
<glyph unicode="&#xca;" horiz-adv-x="1177" d="M133 0v1366h963v-266h-594v-266h553v-267h-553v-301h608v-266h-977zM233 1489l230 328h348l199 -328h-269l-112 178l-121 -178h-275z" />
<glyph unicode="&#xcb;" horiz-adv-x="1177" d="M133 0v1366h963v-266h-594v-266h553v-267h-553v-301h608v-266h-977zM285 1528v260h258v-260h-258zM698 1528v260h260v-260h-260z" />
<glyph unicode="&#xcc;" horiz-adv-x="653" d="M-43 1808h322l188 -319h-254zM131 0v1366h389v-1366h-389z" />
<glyph unicode="&#xcd;" horiz-adv-x="653" d="M133 0v1366h389v-1366h-389zM221 1489l189 319h321l-256 -319h-254z" />
<glyph unicode="&#xce;" horiz-adv-x="653" d="M-20 1489l202 328h348l179 -328h-269l-92 178l-100 -178h-268zM133 0v1366h389v-1366h-389z" />
<glyph unicode="&#xcf;" horiz-adv-x="653" d="M41 1528v260h246v-260h-246zM133 0v1366h389v-1366h-389zM395 1528v260h246v-260h-246z" />
<glyph unicode="&#xd0;" horiz-adv-x="1527" d="M-2 600v219h129v547h512q236 0 380.5 -42.5t248.5 -143.5q176 -170 176 -500q0 -354 -207 -522q-107 -86 -244 -122t-356 -36h-510v600h-129zM516 266h131q160 0 250 56q158 96 158 354q0 209 -100.5 316.5t-295.5 107.5h-143v-281h258v-219h-258v-334z" />
<glyph unicode="&#xd1;" horiz-adv-x="1568" d="M133 0v1366h512l146 -297q46 -93 134.5 -316t166.5 -442v1055h346v-1366h-551l-146 299q-134 272 -274 715v-1014h-334zM481 1516q1 61 10.5 96.5t32.5 70.5q34 52 88.5 80.5t120.5 28.5q40 0 60.5 -6t99.5 -43q60 -27 102 -27q50 0 56 72h174q-1 -124 -63 -202.5 t-158 -78.5q-37 0 -69 9t-114 43q-68 26 -100 26q-31 0 -46.5 -15.5t-19.5 -53.5h-174z" />
<glyph unicode="&#xd2;" horiz-adv-x="1536" d="M84 684q0 335 179 524t497 189q330 0 511 -189t181 -536q0 -324 -182.5 -513.5t-497.5 -189.5q-150 0 -279.5 46t-216.5 130q-192 186 -192 539zM377 1808h334l188 -319h-252zM473 686q0 -216 77 -333t218 -117q90 0 156.5 48.5t97.5 135.5q41 112 41 264 q0 210 -78.5 328t-218.5 118q-141 0 -217 -115t-76 -329z" />
<glyph unicode="&#xd3;" horiz-adv-x="1536" d="M84 684q0 335 179 524t497 189q330 0 511 -189t181 -536q0 -324 -182.5 -513.5t-497.5 -189.5q-150 0 -279.5 46t-216.5 130q-192 186 -192 539zM473 686q0 -216 77 -333t218 -117q90 0 156.5 48.5t97.5 135.5q41 112 41 264q0 210 -78.5 328t-218.5 118 q-141 0 -217 -115t-76 -329zM649 1489l189 319h333l-270 -319h-252z" />
<glyph unicode="&#xd4;" horiz-adv-x="1536" d="M84 684q0 335 179 524t497 189q330 0 511 -189t181 -536q0 -324 -182.5 -513.5t-497.5 -189.5q-150 0 -279.5 46t-216.5 130q-192 186 -192 539zM387 1489l229 328h349l198 -328h-268l-113 178l-120 -178h-275zM473 686q0 -216 77 -333t218 -117q90 0 156.5 48.5 t97.5 135.5q41 112 41 264q0 210 -78.5 328t-218.5 118q-141 0 -217 -115t-76 -329z" />
<glyph unicode="&#xd5;" horiz-adv-x="1536" d="M84 684q0 335 179 524t497 189q330 0 511 -189t181 -536q0 -324 -182.5 -513.5t-497.5 -189.5q-150 0 -279.5 46t-216.5 130q-192 186 -192 539zM444 1516q1 61 10.5 96.5t32.5 70.5q34 52 88.5 80.5t120.5 28.5q40 0 60.5 -6t99.5 -43q60 -27 102 -27q50 0 56 72h174 q-1 -124 -63 -202.5t-158 -78.5q-37 0 -69 9t-114 43q-68 26 -100 26q-31 0 -46.5 -15.5t-19.5 -53.5h-174zM473 686q0 -216 77 -333t218 -117q90 0 156.5 48.5t97.5 135.5q41 112 41 264q0 210 -78.5 328t-218.5 118q-141 0 -217 -115t-76 -329z" />
<glyph unicode="&#xd6;" horiz-adv-x="1536" d="M84 684q0 335 179 524t497 189q330 0 511 -189t181 -536q0 -324 -182.5 -513.5t-497.5 -189.5q-150 0 -279.5 46t-216.5 130q-192 186 -192 539zM438 1528v260h258v-260h-258zM473 686q0 -216 77 -333t218 -117q90 0 156.5 48.5t97.5 135.5q41 112 41 264 q0 210 -78.5 328t-218.5 118q-141 0 -217 -115t-76 -329zM852 1528v260h260v-260h-260z" />
<glyph unicode="&#xd7;" d="M131 332l363 362l-361 361l146 143l360 -360l350 350l139 -141l-350 -349l359 -358l-144 -143l-358 356l-363 -363z" />
<glyph unicode="&#xd8;" horiz-adv-x="1536" d="M57 53l154 168q-67 88 -98 195.5t-31 253.5q0 331 187 529t501 198q126 0 229.5 -31t210.5 -102l154 153l121 -123l-154 -153q66 -107 92.5 -202.5t26.5 -227.5q0 -155 -43.5 -295.5t-118.5 -229.5q-85 -101 -221.5 -159t-290.5 -58q-122 0 -241 33.5t-203 93.5 l-150 -162zM473 655q0 -26 10 -163l498 542q-69 96 -195 96q-97 0 -168.5 -57.5t-111.5 -169.5q-33 -91 -33 -248zM565 324q28 -41 79.5 -64.5t117.5 -23.5q162 0 237 151q62 127 62 289q0 101 -1.5 124t-10.5 58z" />
<glyph unicode="&#xd9;" horiz-adv-x="1529" d="M133 608v758h389v-758q0 -135 8 -188.5t33 -89.5q31 -44 87.5 -69t125.5 -25q75 0 135 32.5t88 89.5q19 40 25 89t6 161v758h369v-758q0 -173 -32.5 -283.5t-106.5 -185.5q-167 -170 -512 -170q-287 0 -441 127q-92 75 -133 196.5t-41 315.5zM395 1808h334l189 -319h-252 z" />
<glyph unicode="&#xda;" horiz-adv-x="1529" d="M133 608v758h389v-758q0 -135 8 -188.5t33 -89.5q31 -44 87.5 -69t125.5 -25q75 0 135 32.5t88 89.5q19 40 25 89t6 161v758h369v-758q0 -173 -32.5 -283.5t-106.5 -185.5q-167 -170 -512 -170q-287 0 -441 127q-92 75 -133 196.5t-41 315.5zM676 1489l188 319h334 l-270 -319h-252z" />
<glyph unicode="&#xdb;" horiz-adv-x="1529" d="M133 608v758h389v-758q0 -135 8 -188.5t33 -89.5q31 -44 87.5 -69t125.5 -25q75 0 135 32.5t88 89.5q19 40 25 89t6 161v758h369v-758q0 -173 -32.5 -283.5t-106.5 -185.5q-167 -170 -512 -170q-287 0 -441 127q-92 75 -133 196.5t-41 315.5zM399 1489l230 328h348 l199 -328h-269l-112 178l-121 -178h-275z" />
<glyph unicode="&#xdc;" horiz-adv-x="1529" d="M133 608v758h389v-758q0 -135 8 -188.5t33 -89.5q31 -44 87.5 -69t125.5 -25q75 0 135 32.5t88 89.5q19 40 25 89t6 161v758h369v-758q0 -173 -32.5 -283.5t-106.5 -185.5q-167 -170 -512 -170q-287 0 -441 127q-92 75 -133 196.5t-41 315.5zM442 1528v260h258v-260h-258 zM856 1528v260h260v-260h-260z" />
<glyph unicode="&#xdd;" horiz-adv-x="1384" d="M-14 1366h448l76 -166q24 -52 72.5 -154.5t76.5 -165t58 -135.5q57 165 207 455l86 166h387l-512 -889v-477h-369v477zM614 1489l189 319h334l-271 -319h-252z" />
<glyph unicode="&#xde;" horiz-adv-x="1298" d="M133 0v1366h369v-192h139q187 0 275.5 -16.5t162.5 -63.5q82 -52 127 -144.5t45 -206.5q0 -108 -41 -197t-116 -143q-72 -52 -155 -70t-251 -18h-186v-315h-369zM502 573h166q112 0 163.5 41t51.5 129q0 86 -55 130.5t-160 44.5h-166v-345z" />
<glyph unicode="&#xdf;" horiz-adv-x="1449" d="M125 0v971q0 120 28.5 198.5t88.5 128.5q65 53 182 82t266 29q228 0 353.5 -77.5t125.5 -217.5q0 -71 -41 -129q-19 -25 -32 -37.5t-76 -68.5q-59 -53 -59 -105q0 -36 17 -63t58 -56q14 -9 156 -86q95 -52 135.5 -114t40.5 -154q0 -160 -117 -251t-321 -91 q-118 0 -206 30.5t-132 86.5q-29 37 -42 79.5t-18 114.5h310q0 -60 21 -86t67 -26q51 0 80.5 34t29.5 93q0 63 -42 104t-175 105q-119 59 -165 113t-46 136q0 80 50 136q21 22 35.5 33t78.5 53q36 25 51 47.5t15 54.5q0 66 -46 104.5t-124 38.5q-106 0 -153.5 -66 t-47.5 -214v-930h-346z" />
<glyph unicode="&#xe0;" horiz-adv-x="1177" d="M84 274q0 218 260 279q98 22 377 33q-1 86 -7.5 122.5t-21.5 57.5q-30 37 -98 37q-66 0 -93.5 -32.5t-27.5 -113.5h-330q2 68 15 112t43 79q102 117 356 117q134 0 243.5 -33.5t170.5 -93.5q46 -46 64 -115.5t18 -202.5v-233q0 -191 16 -287h-332q-9 54 -10 74 q-1 4 -2 17.5t-2 19.5l-2 24q-51 -88 -118 -125t-173 -37q-161 0 -253.5 80t-92.5 221zM213 1384h334l188 -319h-252zM420 289q0 -55 37 -91t94 -36q83 0 126.5 63t43.5 183v32q-121 0 -184 -16q-117 -31 -117 -135z" />
<glyph unicode="&#xe1;" horiz-adv-x="1177" d="M84 274q0 218 260 279q98 22 377 33q-1 86 -7.5 122.5t-21.5 57.5q-30 37 -98 37q-66 0 -93.5 -32.5t-27.5 -113.5h-330q2 68 15 112t43 79q102 117 356 117q134 0 243.5 -33.5t170.5 -93.5q46 -46 64 -115.5t18 -202.5v-233q0 -191 16 -287h-332q-9 54 -10 74 q-1 4 -2 17.5t-2 19.5l-2 24q-51 -88 -118 -125t-173 -37q-161 0 -253.5 80t-92.5 221zM420 289q0 -55 37 -91t94 -36q83 0 126.5 63t43.5 183v32q-121 0 -184 -16q-117 -31 -117 -135zM494 1065l188 319h334l-271 -319h-251z" />
<glyph unicode="&#xe2;" horiz-adv-x="1177" d="M84 274q0 218 260 279q98 22 377 33q-1 86 -7.5 122.5t-21.5 57.5q-30 37 -98 37q-66 0 -93.5 -32.5t-27.5 -113.5h-330q2 68 15 112t43 79q102 117 356 117q134 0 243.5 -33.5t170.5 -93.5q46 -46 64 -115.5t18 -202.5v-233q0 -191 16 -287h-332q-9 54 -10 74 q-1 4 -2 17.5t-2 19.5l-2 24q-51 -88 -118 -125t-173 -37q-161 0 -253.5 80t-92.5 221zM215 1065l229 313h349l198 -313h-268l-113 172l-121 -172h-274zM420 289q0 -55 37 -91t94 -36q83 0 126.5 63t43.5 183v32q-121 0 -184 -16q-117 -31 -117 -135z" />
<glyph unicode="&#xe3;" horiz-adv-x="1177" d="M84 274q0 218 260 279q98 22 377 33q-1 86 -7.5 122.5t-21.5 57.5q-30 37 -98 37q-66 0 -93.5 -32.5t-27.5 -113.5h-330q2 68 15 112t43 79q102 117 356 117q134 0 243.5 -33.5t170.5 -93.5q46 -46 64 -115.5t18 -202.5v-233q0 -191 16 -287h-332q-9 54 -10 74 q-1 4 -2 17.5t-2 19.5l-2 24q-51 -88 -118 -125t-173 -37q-161 0 -253.5 80t-92.5 221zM266 1092q3 55 12 88t31 67q32 49 84.5 79t106.5 30q32 0 52.5 -6t111.5 -43q67 -27 94 -27q45 0 51 72h174q-4 -115 -65.5 -192t-149.5 -77q-34 0 -59.5 7.5t-116.5 44.5 q-66 28 -94 28q-49 0 -58 -71h-174zM420 289q0 -55 37 -91t94 -36q83 0 126.5 63t43.5 183v32q-121 0 -184 -16q-117 -31 -117 -135z" />
<glyph unicode="&#xe4;" horiz-adv-x="1177" d="M84 274q0 218 260 279q98 22 377 33q-1 86 -7.5 122.5t-21.5 57.5q-30 37 -98 37q-66 0 -93.5 -32.5t-27.5 -113.5h-330q2 68 15 112t43 79q102 117 356 117q134 0 243.5 -33.5t170.5 -93.5q46 -46 64 -115.5t18 -202.5v-233q0 -191 16 -287h-332q-9 54 -10 74 q-1 4 -2 17.5t-2 19.5l-2 24q-51 -88 -118 -125t-173 -37q-161 0 -253.5 80t-92.5 221zM272 1092v260h258v-260h-258zM420 289q0 -55 37 -91t94 -36q83 0 126.5 63t43.5 183v32q-121 0 -184 -16q-117 -31 -117 -135zM686 1092v260h260v-260h-260z" />
<glyph unicode="&#xe5;" horiz-adv-x="1177" d="M84 274q0 218 260 279q98 22 377 33q-1 86 -7.5 122.5t-21.5 57.5q-30 37 -98 37q-66 0 -93.5 -32.5t-27.5 -113.5h-330q2 68 15 112t43 79q102 117 356 117q134 0 243.5 -33.5t170.5 -93.5q46 -46 64 -115.5t18 -202.5v-233q0 -191 16 -287h-332q-9 54 -10 74 q-1 4 -2 17.5t-2 19.5l-2 24q-51 -88 -118 -125t-173 -37q-161 0 -253.5 80t-92.5 221zM348 1233q0 79 72.5 131.5t181.5 52.5q115 0 187.5 -52.5t72.5 -135.5q0 -82 -71.5 -133.5t-184.5 -51.5q-117 0 -187.5 51.5t-70.5 137.5zM420 289q0 -55 37 -91t94 -36q83 0 126.5 63 t43.5 183v32q-121 0 -184 -16q-117 -31 -117 -135zM512 1233q0 -41 25.5 -67.5t66.5 -26.5q40 0 66 26t26 66q0 43 -25.5 68.5t-68.5 25.5q-41 0 -65.5 -24.5t-24.5 -67.5z" />
<glyph unicode="&#xe6;" horiz-adv-x="1794" d="M84 268q0 234 291 295q107 20 364 25q-3 69 -8.5 99t-17.5 52q-15 28 -48.5 45t-74.5 17q-37 0 -70.5 -17t-48.5 -43q-16 -32 -16 -84h-322q9 95 32 144t75 84q115 78 311 78q272 0 350 -144q118 144 354 144q157 0 267.5 -65.5t154.5 -184.5q20 -52 27.5 -118.5 t7.5 -195.5h-657q3 -124 43 -175.5t133 -51.5q68 0 103 32.5t44 102.5h316q-19 -134 -97 -217q-52 -54 -145.5 -85.5t-198.5 -31.5q-156 0 -274 64q-39 22 -62.5 45t-46.5 65q-63 -85 -163 -129.5t-226 -44.5q-186 0 -291.5 78.5t-105.5 216.5zM432 266q0 -47 33 -75.5 t90 -28.5q80 0 131 64t51 165v31h-20h-10h-17q-140 0 -199 -35.5t-59 -120.5zM1059 580h323q-4 81 -16 112q-14 35 -53 58.5t-86 23.5q-45 0 -82.5 -19.5t-57.5 -54.5q-21 -35 -26 -98z" />
<glyph unicode="&#xe7;" horiz-adv-x="1161" d="M82 457q0 230 142 368t380 138q218 0 343.5 -97t125.5 -266h-338l-4 29q-11 73 -42.5 104t-96.5 31q-88 0 -125 -70.5t-37 -236.5q0 -148 41.5 -216.5t130.5 -68.5q84 0 119 57q16 27 24 123h351q-12 -114 -37 -171t-82 -103q-129 -105 -373 -105q-258 0 -385 121 q-66 61 -101.5 156.5t-35.5 206.5zM326 -444l190 333h170l-80 -333h-280z" />
<glyph unicode="&#xe8;" horiz-adv-x="1193" d="M84 461q0 240 136 371t386 131q163 0 283.5 -61.5t171.5 -170.5q25 -52 35.5 -125t13.5 -207h-680v-16v-8q0 -96 46 -149.5t128 -53.5q77 0 117.5 34.5t40.5 100.5h330q-7 -166 -128.5 -250t-351.5 -84q-259 0 -393.5 124.5t-134.5 363.5zM213 1384h334l188 -319h-252z M434 580h334q-3 95 -46 144.5t-122 49.5q-154 0 -166 -194z" />
<glyph unicode="&#xe9;" horiz-adv-x="1193" d="M84 461q0 240 136 371t386 131q163 0 283.5 -61.5t171.5 -170.5q25 -52 35.5 -125t13.5 -207h-680v-16v-8q0 -96 46 -149.5t128 -53.5q77 0 117.5 34.5t40.5 100.5h330q-7 -166 -128.5 -250t-351.5 -84q-259 0 -393.5 124.5t-134.5 363.5zM434 580h334q-3 95 -46 144.5 t-122 49.5q-154 0 -166 -194zM506 1065l188 319h334l-270 -319h-252z" />
<glyph unicode="&#xea;" horiz-adv-x="1193" d="M84 461q0 240 136 371t386 131q163 0 283.5 -61.5t171.5 -170.5q25 -52 35.5 -125t13.5 -207h-680v-16v-8q0 -96 46 -149.5t128 -53.5q77 0 117.5 34.5t40.5 100.5h330q-7 -166 -128.5 -250t-351.5 -84q-259 0 -393.5 124.5t-134.5 363.5zM229 1065l230 313h348l199 -313 h-269l-112 172l-121 -172h-275zM434 580h334q-3 95 -46 144.5t-122 49.5q-154 0 -166 -194z" />
<glyph unicode="&#xeb;" horiz-adv-x="1193" d="M84 461q0 240 136 371t386 131q163 0 283.5 -61.5t171.5 -170.5q25 -52 35.5 -125t13.5 -207h-680v-16v-8q0 -96 46 -149.5t128 -53.5q77 0 117.5 34.5t40.5 100.5h330q-7 -166 -128.5 -250t-351.5 -84q-259 0 -393.5 124.5t-134.5 363.5zM281 1092v260h258v-260h-258z M434 580h334q-3 95 -46 144.5t-122 49.5q-154 0 -166 -194zM694 1092v260h260v-260h-260z" />
<glyph unicode="&#xec;" horiz-adv-x="593" d="M-74 1384h322l188 -319h-254zM125 0v936h346v-936h-346z" />
<glyph unicode="&#xed;" horiz-adv-x="593" d="M125 0v936h346v-936h-346zM186 1065l189 319h321l-256 -319h-254z" />
<glyph unicode="&#xee;" horiz-adv-x="593" d="M-43 1065l197 313h348l170 -313h-269l-84 172l-94 -172h-268zM125 0v936h346v-936h-346z" />
<glyph unicode="&#xef;" horiz-adv-x="593" d="M16 1092v260h246v-260h-246zM123 0v936h346v-936h-346zM358 1092v260h246v-260h-246z" />
<glyph unicode="&#xf0;" d="M84 483q0 260 166 379q71 54 167 85.5t183 31.5q36 0 107 -12q-50 79 -85 117.5t-87 70.5l-261 -154l-63 117l174 101q-54 16 -106 22q-61 7 -64 8q-3 0 -31 4l70 133h37q39 0 144.5 -17t168.5 -34l258 150l70 -111l-170 -96q69 -41 127 -100.5t121 -153.5 q164 -252 164 -551q0 -251 -148 -373q-71 -61 -177.5 -94t-227.5 -33q-255 0 -396 133.5t-141 376.5zM432 487q0 -155 50 -235t147 -80q196 0 196 309q0 148 -50.5 225.5t-147.5 77.5q-95 0 -145 -76t-50 -221z" />
<glyph unicode="&#xf1;" horiz-adv-x="1280" d="M125 0v936h346v-127q70 83 145 118.5t175 35.5q178 0 282 -107q47 -50 64.5 -113t17.5 -186v-557h-346v528q0 111 -29 156q-41 57 -129 57q-98 0 -149 -75q-19 -29 -25 -60.5t-6 -93.5v-512h-346zM315 1092q3 55 12 88t31 67q32 49 84.5 79t106.5 30q32 0 52.5 -6 t111.5 -43q68 -27 94 -27q45 0 51 72h174q-4 -115 -65.5 -192t-149.5 -77q-34 0 -59.5 7.5t-116.5 44.5q-66 28 -94 28q-49 0 -58 -71h-174z" />
<glyph unicode="&#xf2;" horiz-adv-x="1253" d="M84 471q0 260 168 381q148 111 375 111q263 0 403.5 -131t140.5 -375q0 -236 -147 -359q-71 -59 -177 -92t-226 -33q-253 0 -395 131.5t-142 366.5zM244 1384h334l188 -319h-252zM430 477q0 -149 50 -227t147 -78q198 0 198 299q0 143 -51 218t-149 75q-95 0 -145 -73.5 t-50 -213.5z" />
<glyph unicode="&#xf3;" horiz-adv-x="1253" d="M84 471q0 260 168 381q148 111 375 111q263 0 403.5 -131t140.5 -375q0 -236 -147 -359q-71 -59 -177 -92t-226 -33q-253 0 -395 131.5t-142 366.5zM430 477q0 -149 50 -227t147 -78q198 0 198 299q0 143 -51 218t-149 75q-95 0 -145 -73.5t-50 -213.5zM522 1065l189 319 h333l-270 -319h-252z" />
<glyph unicode="&#xf4;" horiz-adv-x="1253" d="M84 471q0 260 168 381q148 111 375 111q263 0 403.5 -131t140.5 -375q0 -236 -147 -359q-71 -59 -177 -92t-226 -33q-253 0 -395 131.5t-142 366.5zM246 1065l229 313h348l199 -313h-268l-113 172l-121 -172h-274zM430 477q0 -149 50 -227t147 -78q198 0 198 299 q0 143 -51 218t-149 75q-95 0 -145 -73.5t-50 -213.5z" />
<glyph unicode="&#xf5;" horiz-adv-x="1253" d="M84 471q0 260 168 381q148 111 375 111q263 0 403.5 -131t140.5 -375q0 -236 -147 -359q-71 -59 -177 -92t-226 -33q-253 0 -395 131.5t-142 366.5zM309 1092q3 55 12 88t31 67q32 49 84.5 79t106.5 30q32 0 52.5 -6t111.5 -43q67 -27 94 -27q45 0 51 72h174 q-4 -115 -65.5 -192t-149.5 -77q-34 0 -59.5 7.5t-116.5 44.5q-66 28 -94 28q-49 0 -58 -71h-174zM430 477q0 -149 50 -227t147 -78q198 0 198 299q0 143 -51 218t-149 75q-95 0 -145 -73.5t-50 -213.5z" />
<glyph unicode="&#xf6;" horiz-adv-x="1253" d="M84 471q0 260 168 381q148 111 375 111q263 0 403.5 -131t140.5 -375q0 -236 -147 -359q-71 -59 -177 -92t-226 -33q-253 0 -395 131.5t-142 366.5zM303 1092v260h258v-260h-258zM430 477q0 -149 50 -227t147 -78q198 0 198 299q0 143 -51 218t-149 75q-95 0 -145 -73.5 t-50 -213.5zM717 1092v260h260v-260h-260z" />
<glyph unicode="&#xf7;" d="M63 584v202h1129v-202h-1129zM469 905v264h317v-264h-317zM479 197v270h318v-270h-318z" />
<glyph unicode="&#xf8;" horiz-adv-x="1253" d="M84 471q0 230 144 361t397 131q205 0 333 -78l107 108l84 -78l-96 -94q71 -105 94.5 -176.5t23.5 -183.5q0 -240 -147 -363q-71 -59 -176.5 -92t-222.5 -33q-90 0 -173.5 18.5t-138.5 49.5l-108 -113l-84 78l92 100q-75 103 -102 179t-27 186zM430 483q0 -59 16 -155 l318 372q-29 35 -60.5 49.5t-78.5 14.5q-93 0 -144 -73.5t-51 -207.5zM500 225q41 -53 127 -53q198 0 198 297q0 51 -8 119z" />
<glyph unicode="&#xf9;" horiz-adv-x="1253" d="M125 451v485h346v-485q0 -99 7 -139t30 -72q35 -47 102 -47q52 0 96.5 29t61.5 73q11 30 13.5 59t2.5 121v461h346v-936h-346v147q-52 -92 -128 -134t-187 -42q-184 0 -270 103q-58 71 -70 190q-4 58 -4 187zM244 1384h334l188 -319h-252z" />
<glyph unicode="&#xfa;" horiz-adv-x="1253" d="M125 451v485h346v-485q0 -99 7 -139t30 -72q35 -47 102 -47q52 0 96.5 29t61.5 73q11 30 13.5 59t2.5 121v461h346v-936h-346v147q-52 -92 -128 -134t-187 -42q-184 0 -270 103q-58 71 -70 190q-4 58 -4 187zM516 1079l189 320h333l-270 -320h-252z" />
<glyph unicode="&#xfb;" horiz-adv-x="1253" d="M125 451v485h346v-485q0 -99 7 -139t30 -72q35 -47 102 -47q52 0 96.5 29t61.5 73q11 30 13.5 59t2.5 121v461h346v-936h-346v147q-52 -92 -128 -134t-187 -42q-184 0 -270 103q-58 71 -70 190q-4 58 -4 187zM248 1065l229 313h348l199 -313h-268l-113 172l-121 -172 h-274z" />
<glyph unicode="&#xfc;" horiz-adv-x="1253" d="M125 451v485h346v-485q0 -99 7 -139t30 -72q35 -47 102 -47q52 0 96.5 29t61.5 73q11 30 13.5 59t2.5 121v461h346v-936h-346v147q-52 -92 -128 -134t-187 -42q-184 0 -270 103q-58 71 -70 190q-4 58 -4 187zM305 1092v260h258v-260h-258zM719 1092v260h260v-260h-260z " />
<glyph unicode="&#xfd;" horiz-adv-x="1191" d="M18 936h394q61 -147 127.5 -346.5t85.5 -292.5q78 253 108 332q47 133 117 307h321l-546 -1294h-318l139 346zM518 1065l189 319h333l-270 -319h-252z" />
<glyph unicode="&#xfe;" horiz-adv-x="1273" d="M125 -354v1720h346v-561q49 82 123 120t182 38q192 0 304 -133.5t112 -360.5q0 -237 -105.5 -366.5t-298.5 -129.5q-109 0 -181 35.5t-136 122.5v-485h-346zM461 475q0 -143 50 -223t140 -80q88 0 140.5 78.5t52.5 210.5q0 122 -45 207q-47 96 -150 96q-90 0 -139 -76 t-49 -213z" />
<glyph unicode="&#xff;" horiz-adv-x="1191" d="M18 936h394q61 -147 127.5 -346.5t85.5 -292.5q78 253 108 332q47 133 117 307h321l-546 -1294h-318l139 346zM293 1092v260h258v-260h-258zM707 1092v260h260v-260h-260z" />
<glyph unicode="&#x152;" horiz-adv-x="1980" d="M84 680q0 189 50 322t159 231q174 158 438 158q57 0 301 -25h860v-266h-592v-266h551v-267h-551v-301h611v-266h-879q-183 -23 -274 -23q-136 0 -261 44t-214 124q-199 181 -199 535zM473 692q0 -210 80 -334q69 -106 238 -106q49 0 141 14v846q-68 12 -137 12 q-85 0 -136 -19t-88 -65q-98 -125 -98 -348z" />
<glyph unicode="&#x153;" horiz-adv-x="1929" d="M84 471q0 131 46.5 232t133.5 159q150 103 359 103q123 0 211.5 -33.5t160.5 -106.5q78 75 159.5 106.5t201.5 31.5q170 0 292.5 -71.5t166.5 -197.5q32 -94 32 -248v-47h-680q3 -120 44.5 -173.5t129.5 -53.5q155 0 158 135h332q-9 -166 -126 -250t-337 -84 q-162 0 -258 47q-51 22 -115 89q-78 -76 -156.5 -106t-203.5 -30q-264 0 -407.5 130t-143.5 368zM446 473q0 -301 189 -301q94 0 143 74t49 215q0 149 -50.5 227t-145.5 78q-91 0 -138 -74.5t-47 -218.5zM1171 580h338q-14 106 -52.5 150t-117.5 44q-77 0 -116.5 -45.5 t-51.5 -148.5z" />
<glyph unicode="&#x178;" horiz-adv-x="1384" d="M-14 1366h448l76 -166q24 -52 72.5 -154.5t76.5 -165t58 -135.5q57 165 207 455l86 166h387l-512 -889v-477h-369v477zM381 1528v260h258v-260h-258zM795 1528v260h260v-260h-260z" />
<glyph unicode="&#x2c6;" horiz-adv-x="1024" d="M125 1065l229 313h348l199 -313h-268l-113 172l-121 -172h-274z" />
<glyph unicode="&#x2dc;" horiz-adv-x="1024" d="M154 1092q3 55 12 88t31 67q32 49 84 79t106 30q32 0 52.5 -6t111.5 -43q68 -27 94 -27q45 0 51 72h174q-4 -115 -65.5 -192t-149.5 -77q-34 0 -59.5 7.5t-116.5 44.5q-66 28 -94 28q-48 0 -57 -71h-174z" />
<glyph unicode="&#x2000;" horiz-adv-x="923" />
<glyph unicode="&#x2001;" horiz-adv-x="1847" />
<glyph unicode="&#x2002;" horiz-adv-x="923" />
<glyph unicode="&#x2003;" horiz-adv-x="1847" />
<glyph unicode="&#x2004;" horiz-adv-x="615" />
<glyph unicode="&#x2005;" horiz-adv-x="461" />
<glyph unicode="&#x2006;" horiz-adv-x="307" />
<glyph unicode="&#x2007;" horiz-adv-x="307" />
<glyph unicode="&#x2008;" horiz-adv-x="230" />
<glyph unicode="&#x2009;" horiz-adv-x="369" />
<glyph unicode="&#x200a;" horiz-adv-x="102" />
<glyph unicode="&#x2010;" horiz-adv-x="557" d="M0 377v276h557v-276h-557z" />
<glyph unicode="&#x2011;" horiz-adv-x="557" d="M0 377v276h557v-276h-557z" />
<glyph unicode="&#x2012;" horiz-adv-x="557" d="M0 377v276h557v-276h-557z" />
<glyph unicode="&#x2013;" horiz-adv-x="1183" d="M104 377v276h973v-276h-973z" />
<glyph unicode="&#x2014;" horiz-adv-x="1683" d="M0 377v276h1683v-276h-1683z" />
<glyph unicode="&#x2018;" horiz-adv-x="610" d="M88 905l201 461h231l-108 -461h-324z" />
<glyph unicode="&#x2019;" horiz-adv-x="610" d="M88 905l109 461h323l-201 -461h-231z" />
<glyph unicode="&#x201a;" horiz-adv-x="610" d="M88 -166l109 461h323l-201 -461h-231z" />
<glyph unicode="&#x201c;" horiz-adv-x="1036" d="M88 905l201 461h231l-108 -461h-324zM514 905l201 461h231l-106 -461h-326z" />
<glyph unicode="&#x201d;" horiz-adv-x="1036" d="M88 905l109 461h323l-201 -461h-231zM514 905l109 461h323l-198 -461h-234z" />
<glyph unicode="&#x201e;" horiz-adv-x="1036" d="M88 -197l109 461h323l-201 -461h-231zM514 -197l109 461h323l-198 -461h-234z" />
<glyph unicode="&#x2022;" horiz-adv-x="1366" d="M401 692q0 120 83.5 202.5t205.5 82.5q114 0 196.5 -83.5t82.5 -199.5q0 -118 -83 -201t-200 -83t-201 82.5t-84 199.5z" />
<glyph unicode="&#x2026;" horiz-adv-x="1720" d="M121 0v276h332v-276h-332zM694 0v276h332v-276h-332zM1268 0v276h331v-276h-331z" />
<glyph unicode="&#x202f;" horiz-adv-x="369" />
<glyph unicode="&#x2039;" horiz-adv-x="636" d="M68 469l235 375h252l-162 -375l162 -367h-252z" />
<glyph unicode="&#x203a;" horiz-adv-x="638" d="M82 98l162 371l-162 377h254l235 -377l-235 -371h-254z" />
<glyph unicode="&#x205f;" horiz-adv-x="461" />
<glyph unicode="&#x20ac;" horiz-adv-x="1632" d="M70 573l96 226h115q18 153 71 264q75 161 235.5 247.5t383.5 86.5q160 0 287.5 -50.5t197.5 -142.5q76 -100 92 -268h-387q-24 194 -205 194q-121 0 -192 -81.5t-96 -249.5h352l-96 -226h-256q30 -337 280 -337q186 0 223 208h394q-7 -87 -27.5 -147.5t-60.5 -114.5 q-75 -102 -213 -157.5t-316 -55.5q-306 0 -477.5 154.5t-196.5 449.5h-204z" />
<glyph unicode="&#x2122;" horiz-adv-x="1959" d="M20 1204v162h748v-162h-248v-616h-244v616h-256zM834 588v778h358l106 -309q31 -89 52 -232q27 153 53 232l100 309h359v-778h-217v592l-203 -592h-193l-205 557v-557h-210z" />
<glyph unicode="&#xe000;" horiz-adv-x="931" d="M0 0v932h932v-932h-932z" />
</font>
</defs>
</svg>
